<svg xmlns="http://www.w3.org/2000/svg" xmlns:xlink="http://www.w3.org/1999/xlink" width="550" height="550" viewBox="0 0 550 550">
    <defs>
        <path id="gcnuhecota" d="M0 0.159L439.035 0.159 439.035 484 0 484z"/>
    </defs>
    <g fill="none" fill-rule="evenodd">
        <g>
            <g>
                <g transform="translate(39 29) translate(0 .841)">
                    <mask id="ak2fsqwdkb" fill="#fff">
                        <use xlink:href="#gcnuhecota"/>
                    </mask>
                    <path fill="#2E036A" d="M181.88 465.72l217.628.28 7.58-148.314c.004-.07.008-.14.014-.212 1.104-14.762 3.307-32.139 5.64-50.536 6.541-51.596 14.683-115.81.175-145.54-.14-.287-.265-.58-.374-.88-10.329-28.506-32.125-54.519-61.372-73.248-29.314-18.773-64.303-29.11-98.518-29.11-40.982 0-81.107 14.54-112.98 40.94-31.95 26.463-51.497 61.614-55.04 98.977-1.035 10.903-4.047 21.077-8.954 30.24L18.54 295.028h57.12c4.93 0 8.94 3.963 9 8.892l1.121 92.983 73.12-4.278c9.35-.558 17.383 6.371 18.171 15.758l4.808 57.337zM400.242 484h-.02l-219.076-.28c-9.02-.012-16.39-6.799-17.146-15.788l-4.804-57.293-73.173 4.28c-4.679.265-9.324-1.4-12.75-4.594-3.428-3.193-5.425-7.71-5.482-12.395l-1.024-84.902h-49.52c-6.113 0-11.639-3.13-14.779-8.376-3.142-5.244-3.294-11.593-.408-16.983l57.75-107.849c3.772-7.045 6.094-14.932 6.902-23.442C74.883 70.24 158.294.16 252.653.16c78.296 0 152.5 47.823 176.653 113.785 16.584 34.662 8.462 98.715 1.293 155.258-2.297 18.117-4.467 35.231-5.54 49.511l-7.612 148.94c-.468 9.17-8.023 16.347-17.204 16.347z" mask="url(#ak2fsqwdkb)"/>
                </g>
                <path fill="#2E036A" d="M291.017 396.735c-3.866 0-7-3.134-7-7v-59.8c0-3.865 3.134-7 7-7s7 3.135 7 7v59.8c0 3.866-3.134 7-7 7" transform="translate(39 29)"/>
                <path fill="#2E036A" d="M174.798 329.04c-1.062 0-2.139-.243-3.15-.755-3.452-1.744-4.835-5.954-3.09-9.405l53.028-104.93c1.15-2.274 3.442-3.744 5.988-3.838 2.517-.099 4.942 1.201 6.256 3.385l56.56 93.93 53.426-108.869v-64.943c0-3.867 3.133-7 7-7 3.866 0 7 3.133 7 7v66.568c0 1.07-.246 2.124-.716 3.084l-59.799 121.855c-1.129 2.3-3.424 3.8-5.984 3.91-2.585.116-4.975-1.189-6.297-3.384l-56.65-94.08-47.319 93.627c-1.232 2.438-3.695 3.844-6.253 3.844" transform="translate(39 29)"/>
                <path fill="#FFC6F3" d="M204.139 322.038c0 16.202-13.134 29.335-29.335 29.335s-29.335-13.133-29.335-29.335 13.134-29.335 29.335-29.335c16.2 0 29.335 13.133 29.335 29.335M320.352 322.038c0 16.202-13.134 29.335-29.335 29.335s-29.335-13.133-29.335-29.335 13.134-29.335 29.335-29.335c16.2 0 29.335 13.133 29.335 29.335M257.168 217.108c0 16.202-13.134 29.335-29.335 29.335-16.2 0-29.335-13.133-29.335-29.335 0-16.201 13.134-29.335 29.335-29.335s29.335 13.134 29.335 29.335M380.15 200.183c0 16.202-13.133 29.335-29.334 29.335s-29.335-13.133-29.335-29.335c0-16.2 13.134-29.335 29.335-29.335 16.2 0 29.335 13.134 29.335 29.335" transform="translate(39 29)"/>
                <path fill="#2E036A" d="M373.381 150.77c-1.79 0-3.583-.685-4.95-2.05l-17.615-17.617L333.2 148.72c-2.734 2.733-7.166 2.733-9.9 0-2.733-2.734-2.733-7.166 0-9.9l22.565-22.565c2.735-2.734 7.166-2.734 9.901 0l22.565 22.565c2.734 2.734 2.734 7.166 0 9.9-1.367 1.366-3.159 2.05-4.95 2.05M291.017 408.017c-1.791 0-3.583-.684-4.95-2.05L263.5 383.401c-2.733-2.733-2.733-7.166 0-9.899 2.735-2.734 7.166-2.734 9.9 0l17.616 17.616 17.615-17.616c2.735-2.734 7.166-2.734 9.9 0 2.734 2.733 2.734 7.166 0 9.9l-22.565 22.565c-1.367 1.366-3.16 2.05-4.95 2.05" transform="translate(39 29)"/>
            </g>
        </g>
    </g>
</svg>
