<svg xmlns="http://www.w3.org/2000/svg" xmlns:xlink="http://www.w3.org/1999/xlink" width="550" height="550" viewBox="0 0 550 550">
    <defs>
        <path id="48p7zxdfda" d="M0 0.199L486.081 0.199 486.081 199 0 199z"/>
        <path id="kshg5gqumc" d="M0 474.438L486.081 474.438 486.081 0 0 0z"/>
    </defs>
    <g fill="none" fill-rule="evenodd">
        <g>
            <g transform="translate(32 38)">
                <g transform="translate(0 275.438)">
                    <mask id="ucgpd1ftpb" fill="#fff">
                        <use xlink:href="#48p7zxdfda"/>
                    </mask>
                    <path fill="#2E036A" d="M179.56 148.945h126.972l-4.014-16.055H183.574l-4.014 16.055zm137.858 17H168.673c-2.617 0-5.089-1.206-6.7-3.269-1.61-2.063-2.181-4.753-1.546-7.293l8.264-33.054c.946-3.784 4.346-6.439 8.246-6.439h132.218c3.9 0 7.3 2.655 8.246 6.44l8.264 33.053c.634 2.54.064 5.23-1.546 7.293-1.612 2.063-4.083 3.27-6.701 3.27zM25.044 182H461.046c4.431 0 8.035-3.597 8.035-8.022 0-.72-.096-1.439-.287-2.13L426.618 17.198H59.474L17.302 171.83c-.572 2.084-.302 4.25.759 6.113 1.061 1.863 2.782 3.203 4.851 3.771.692.19 1.409.287 2.127.287h.005zm436.009 17H25.035c-2.236 0-4.467-.3-6.628-.895-6.447-1.772-11.818-5.948-15.122-11.758-3.306-5.81-4.151-12.56-2.379-19.007L44.782 6.463C45.789 2.765 49.149.2 52.982.2H433.11c3.833 0 7.192 2.566 8.2 6.264l43.88 160.893c.591 2.147.891 4.385.891 6.634-.005 6.686-2.614 12.97-7.344 17.693-4.726 4.72-11.006 7.317-17.684 7.317z" mask="url(#ucgpd1ftpb)"/>
                </g>
                <mask id="3xj75oznod" fill="#fff">
                    <use xlink:href="#kshg5gqumc"/>
                </mask>
                <path fill="#2E036A" d="M78.257 321.342L111.312 321.342 111.312 304.815 78.257 304.815zM127.839 321.342L160.894 321.342 160.894 304.815 127.839 304.815zM177.421 321.342L210.476 321.342 210.476 304.815 177.421 304.815zM276.585 321.342L309.64 321.342 309.64 304.815 276.585 304.815zM326.167 321.342L359.221 321.342 359.221 304.815 326.167 304.815zM375.749 321.342L408.804 321.342 408.804 304.815 375.749 304.815zM227.003 321.342L260.058 321.342 260.058 304.815 227.003 304.815zM78.257 354.397L111.312 354.397 111.312 337.87 78.257 337.87zM127.839 354.397L160.894 354.397 160.894 337.87 127.839 337.87zM177.421 354.397L210.476 354.397 210.476 337.87 177.421 337.87zM276.585 354.397L309.64 354.397 309.64 337.87 276.585 337.87zM326.167 354.397L359.221 354.397 359.221 337.87 326.167 337.87zM375.749 354.397L408.804 354.397 408.804 337.87 375.749 337.87zM227.003 354.397L260.058 354.397 260.058 337.87 227.003 337.87zM61.67 275.638h362.873V55.813c0-9.75-7.93-17.68-17.68-17.68H79.348c-9.748 0-17.679 7.93-17.679 17.68v219.825zm371.373 17H53.17c-4.694 0-8.5-3.806-8.5-8.5V55.813c0-19.122 15.557-34.68 34.68-34.68h327.514c19.122 0 34.68 15.558 34.68 34.68v228.325c0 4.694-3.806 8.5-8.5 8.5z" mask="url(#3xj75oznod)"/>
                <path fill="#EDC5FF" d="M371.692 128.26C371.692 57.422 314.268 0 243.432 0c-70.836 0-128.26 57.423-128.26 128.26 0 70.834 57.424 128.258 128.26 128.258 70.328.508 127.752-56.092 128.26-126.42.003-.613.003-1.226 0-1.839" mask="url(#3xj75oznod)"/>
                <path fill="#2E036A" d="M204.967 114.186l-11.692 7.207c2.944-22.581 20.732-41.072 43.11-45.018 17.928-3.16 35.948 3.01 48.205 16.504l14.952-13.582c-16.947-18.657-41.87-27.19-66.664-22.815-30.496 5.377-54.909 30.306-59.472 60.999l-7.433-6.2-12.938 15.514 24.156 20.145c3.297 2.749 8.112 3.095 11.768.842l26.607-16.4-10.599-17.196zM338.037 129.749l-24.155-20.145c-3.334-2.78-8.072-3.12-11.77-.841l-26.605 16.397 10.598 17.197 11.694-7.207c-2.946 22.578-20.733 41.072-43.112 45.017-18.746 3.304-37.89-3.8-49.965-18.543l-15.628 12.799c13.987 17.077 34.838 26.743 56.478 26.743 35.61 0 66.849-26.822 72.093-62.103l7.433 6.199 12.939-15.513z" mask="url(#3xj75oznod)"/>
            </g>
        </g>
    </g>
</svg>
