<svg xmlns="http://www.w3.org/2000/svg" xmlns:xlink="http://www.w3.org/1999/xlink" width="550" height="550" viewBox="0 0 550 550">
    <defs>
        <path id="u521xmfs9a" d="M0.415 0.362L77.695 0.362 77.695 77.642 0.415 77.642z"/>
        <path id="gsz7cru79c" d="M0 0.306L77.28 0.306 77.28 77.586 0 77.586z"/>
    </defs>
    <g fill="none" fill-rule="evenodd">
        <g>
            <g>
                <path fill="#EDC5FF" d="M225.143 162.725l-6.827-13.654c-1.803-3.606-6.187-5.07-9.794-3.264-3.606 1.802-5.067 6.187-3.264 9.793l6.826 13.654c1.28 2.558 3.857 4.036 6.536 4.036 1.096 0 2.21-.248 3.258-.772 3.607-1.802 5.069-6.187 3.265-9.793M293.947 171.436l-3.563-3.25c-2.978-2.716-7.594-2.505-10.313.472-2.718 2.979-2.505 7.596.473 10.314l3.562 3.25c1.401 1.277 3.163 1.907 4.92 1.907 1.98 0 3.953-.801 5.393-2.38 2.717-2.978 2.506-7.595-.472-10.313" transform="translate(20 19)"/>
                <path fill="#EDC5FF" d="M230.818 377.752l20.154-41.874c5.085-10.566 1.408-23.201-8.553-29.39l-34.08-21.168c-4.63-2.875-10.194-2.952-14.738-.672l-31.502-13.92 3.495-6.844c.08-.154.234-.26.407-.273l12.32-1.01c3.965-.325 7.582-2.161 10.186-5.17l37.207-42.994c5.071-5.86 4.902-14.544-.393-20.202l-10.573-11.297c-3.543-3.787-8.702-5.476-13.799-4.526-5.096.952-9.297 4.39-11.235 9.202l-.855 2.123c-.023.059-.086.213-.302.287-.218.076-.36-.007-.415-.04l-6.056-3.472c-.062-.035-.207-.12-.246-.354-.039-.234.071-.36.12-.413l11.221-12.771c4.164-4.738 6.158-10.808 5.615-17.093-.337-3.898-1.624-7.546-3.725-10.7 9.602-5.295 19.757-9.237 30.182-11.825l13.156 37.1c1.241 3.5 4.123 6.164 7.711 7.124.963.257 1.942.384 2.917.384 2.653 0 5.256-.937 7.32-2.701l20.182-17.234c4.123-3.522 6.871-8.41 7.736-13.76l1.766-10.913c14.251 3.538 27.996 9.607 40.515 18.205l-9.285 13.552c-2.278 3.326-1.43 7.869 1.897 10.148 1.26.865 2.697 1.278 4.12 1.278 2.326 0 4.613-1.11 6.027-3.174l8.792-12.832c2.103 1.84 4.163 3.753 6.167 5.757 1.635 1.637 3.214 3.312 4.747 5.02l-40.47 21.637c-4.625 2.473-7.596 7.073-7.948 12.304l-.733 10.9-5.333 9.264c-2.012 3.494-.812 7.957 2.683 9.969.773.446 1.594.72 2.424.86-3.928 1.868-7.25 4.822-9.59 8.589l-11.226 18.075c-4.209 6.778-4.57 15.4-.939 22.506l8.672 16.975c3.008 5.888 9.41 9.11 15.932 8.027l13.622-2.271c.053-.01.212-.035.384.094.172.128.191.289.197.342l6.27 52.073c-27.607 17.594-60.77 23.436-92.148 17.098m123.78-221.783c-54.563-54.561-143.342-54.562-197.904 0-50.145 50.145-54.829 129.904-10.896 185.526 2.5 3.163 7.09 3.7 10.254 1.204 3.163-2.5 3.703-7.09 1.204-10.254-16.837-21.317-25.694-46.592-26.804-72.054l12.16 14.33c2.975 3.507 6.77 6.345 10.975 8.208l29.863 13.23-8.572 12.582c-3.672 5.39-2.99 12.652 1.623 17.266l16.931 16.932v20.73c-5.28-3.035-10.4-6.483-15.31-10.36-3.165-2.497-7.755-1.96-10.254 1.204-2.499 3.163-1.96 7.755 1.203 10.254 25.513 20.152 56.1 30.072 86.581 30.072 35.974 0 71.8-13.824 98.945-40.968 54.562-54.562 54.562-143.341 0-197.902" transform="translate(20 19)"/>
                <path fill="#2E036A" d="M254.82 129.338c-69.743 0-126.482 56.739-126.482 126.48 0 69.743 56.74 126.482 126.481 126.482 69.742 0 126.481-56.74 126.481-126.481 0-69.742-56.739-126.481-126.48-126.481m0 269.962c-79.117 0-143.482-64.365-143.482-143.481 0-79.115 64.365-143.481 143.481-143.481S398.3 176.704 398.3 255.818c0 79.117-64.365 143.482-143.48 143.482M43.74 208.216c-.722 0-1.454-.092-2.184-.286-4.538-1.203-7.24-5.857-6.038-10.394 21.176-79.877 84.136-141.9 164.31-161.863 4.55-1.134 9.168 1.638 10.302 6.194 1.134 4.555-1.639 9.167-6.195 10.302-74.16 18.466-132.397 75.837-151.985 149.723-1.009 3.808-4.449 6.324-8.21 6.324" transform="translate(20 19)"/>
                <g transform="translate(20 19) translate(217 .638)">
                    <mask id="kxjoafjndb" fill="#fff">
                        <use xlink:href="#u521xmfs9a"/>
                    </mask>
                    <path fill="#2E036A" d="M39.055 17.362c-11.933 0-21.64 9.708-21.64 21.64s9.707 21.64 21.64 21.64 21.64-9.708 21.64-21.64-9.707-21.64-21.64-21.64m0 60.28c-21.306 0-38.64-17.334-38.64-38.64S17.749.362 39.055.362s38.64 17.334 38.64 38.64-17.334 38.64-38.64 38.64" mask="url(#kxjoafjndb)"/>
                </g>
                <path fill="#2E036A" d="M198.72 475.406c-.722 0-1.454-.092-2.184-.286-79.877-21.175-141.9-84.135-161.864-164.31-1.135-4.555 1.639-9.167 6.194-10.301 4.55-1.134 9.167 1.637 10.302 6.194 18.468 74.16 75.839 132.398 149.724 151.985 4.538 1.203 7.24 5.857 6.038 10.394-1.01 3.808-4.45 6.324-8.21 6.324" transform="translate(20 19)"/>
                <g transform="translate(20 19) translate(0 215.638)">
                    <mask id="n3ow663bid" fill="#fff">
                        <use xlink:href="#gsz7cru79c"/>
                    </mask>
                    <path fill="#2E036A" d="M38.64 17.306c-11.933 0-21.64 9.708-21.64 21.64s9.707 21.64 21.64 21.64 21.64-9.708 21.64-21.64-9.707-21.64-21.64-21.64m0 60.28C17.334 77.586 0 60.252 0 38.946 0 17.639 17.334.306 38.64.306s38.64 17.333 38.64 38.64c0 21.306-17.334 38.64-38.64 38.64" mask="url(#n3ow663bid)"/>
                </g>
                <path fill="#2E036A" d="M307.749 476.22c-3.812 0-7.278-2.583-8.241-6.448-1.135-4.555 1.638-9.168 6.194-10.302 74.161-18.467 132.399-75.838 151.985-149.724 1.203-4.538 5.868-7.236 10.394-6.038 4.538 1.203 7.241 5.857 6.038 10.395-21.175 79.876-84.135 141.898-164.309 161.863-.69.172-1.38.254-2.061.254M253.584 450.359c-11.933 0-21.641 9.708-21.641 21.64s9.708 21.639 21.641 21.639c11.933 0 21.64-9.707 21.64-21.64 0-11.931-9.707-21.64-21.64-21.64m0 60.28c-21.307 0-38.641-17.333-38.641-38.64 0-21.306 17.334-38.64 38.641-38.64 21.306 0 38.64 17.334 38.64 38.64 0 21.307-17.334 38.64-38.64 38.64M466.71 211.384c-3.811 0-7.277-2.583-8.24-6.448-18.467-74.16-75.837-132.398-149.723-151.985-4.538-1.203-7.241-5.857-6.038-10.395 1.203-4.538 5.866-7.239 10.394-6.038 79.877 21.176 141.899 84.136 161.863 164.31 1.135 4.556-1.64 9.168-6.194 10.302-.69.172-1.38.254-2.061.254M470.998 235.415c-11.933 0-21.64 9.708-21.64 21.64s9.707 21.64 21.64 21.64 21.641-9.708 21.641-21.64-9.708-21.64-21.641-21.64m0 60.28c-21.306 0-38.64-17.334-38.64-38.64 0-21.307 17.334-38.64 38.64-38.64 21.307 0 38.641 17.333 38.641 38.64 0 21.306-17.334 38.64-38.641 38.64" transform="translate(20 19)"/>
            </g>
        </g>
    </g>
</svg>
