<svg xmlns="http://www.w3.org/2000/svg" xmlns:xlink="http://www.w3.org/1999/xlink" width="550" height="550" viewBox="0 0 550 550">
    <defs>
        <path id="dzt9iq05fa" d="M0 0.706L476.037 0.706 476.037 432 0 432z"/>
        <path id="ochxq57a3c" d="M0 432.294L476.037 432.294 476.037 1 0 1z"/>
    </defs>
    <g fill="none" fill-rule="evenodd">
        <g transform="translate(36.5 58)">
            <path fill="#7CD9C2" d="M145.23 230.634c0-16.686-13.528-30.212-30.213-30.212-16.685 0-30.212 13.526-30.212 30.212s13.526 30.212 30.211 30.212c16.686 0 30.213-13.526 30.213-30.212M224.406 268.14c0-16.687-13.526-30.213-30.213-30.213-16.685 0-30.212 13.526-30.212 30.212s13.527 30.212 30.212 30.212c16.687 0 30.213-13.526 30.213-30.212M303.583 217.09c0-16.685-13.526-30.211-30.212-30.211s-30.213 13.526-30.213 30.212 13.527 30.212 30.213 30.212 30.212-13.526 30.212-30.212M377.55 282.725c0-16.686-13.525-30.212-30.211-30.212-16.685 0-30.212 13.526-30.212 30.212s13.527 30.212 30.212 30.212c16.686 0 30.212-13.526 30.212-30.212"/>
            <path fill="#2E036A" d="M259.91 324.883c-2.253 0-4.327-1.338-5.233-3.452l-41.628-97.13-15.459 45.704c-.69 2.037-2.468 3.513-4.599 3.814-2.135.3-4.248-.624-5.476-2.39l-15.306-22.043-17.664 57.406c-.697 2.264-2.722 3.861-5.087 4.01-2.347.142-4.574-1.183-5.548-3.343l-25.319-56.115-13.16 63.72c-.366 1.772-1.553 3.266-3.199 4.022-1.645.756-3.552.686-5.137-.192l-49.249-27.263c-2.752-1.523-3.749-4.989-2.225-7.742s4.991-3.748 7.742-2.224l42.478 23.514 15.143-73.329c.5-2.418 2.5-4.238 4.952-4.509 2.455-.272 4.803 1.068 5.818 3.318l26.338 58.371 16.673-54.186c.641-2.083 2.415-3.618 4.57-3.952 2.158-.339 4.308.59 5.553 2.38l15.534 22.37 16.604-49.09c.756-2.235 2.814-3.773 5.171-3.866 2.405-.102 4.53 1.28 5.46 3.448l39.433 92.008 11.252-80.876c.341-2.456 2.234-4.409 4.678-4.828 2.454-.418 4.88.792 6.021 2.994l18.043 34.841 13.527-67.637c.513-2.565 2.708-4.452 5.321-4.572 2.62-.138 4.974 1.554 5.722 4.061l24.451 81.981 22.677-75.828c.701-2.344 2.82-3.978 5.264-4.06 2.47-.094 4.67 1.403 5.527 3.694l19.96 53.293 26.044-8.68c2.982-.998 6.21.617 7.204 3.601.995 2.984-.618 6.21-3.602 7.204l-31.254 10.418c-2.91.97-6.06-.536-7.135-3.406l-15.945-42.577-23.29 77.876c-.722 2.412-2.94 4.064-5.458 4.064-2.519 0-4.738-1.655-5.458-4.068l-23.352-78.297-12.215 61.077c-.474 2.371-2.394 4.185-4.789 4.523-2.392.342-4.74-.873-5.853-3.02l-17.272-33.353-11.604 83.405c-.353 2.533-2.35 4.52-4.885 4.86-.254.034-.508.051-.76.051"/>
            <g transform="translate(0 .294)">
                <mask id="t5uvv8frub" fill="#fff">
                    <use xlink:href="#dzt9iq05fa"/>
                </mask>
                <path fill="#2E036A" d="M47.096 17.706C29.939 17.706 17 30.36 17 47.14v338.424C17 401.795 29.169 415 44.127 415H431.91c14.958 0 27.127-13.204 27.127-29.435V47.14c0-16.847-12.754-29.435-24.157-29.435H47.096zM431.91 432H44.127C19.795 432 0 411.17 0 385.565V47.14C0 20.669 20.247.706 47.096.706H434.88c21.925 0 41.157 21.699 41.157 46.435v338.424c0 25.605-19.795 46.435-44.127 46.435z" mask="url(#t5uvv8frub)"/>
            </g>
            <mask id="jcxyq5crpd" fill="#fff">
                <use xlink:href="#ochxq57a3c"/>
            </mask>
            <path fill="#2E036A" d="M4.293 104.79L475.758 104.79 475.758 87.79 4.293 87.79zM142.999 61.03H43.812c-4.97 0-9-4.03-9-9 0-4.971 4.03-9 9-9h99.187c4.971 0 9 4.029 9 9 0 4.97-4.029 9-9 9M310.264 61.03h-18.281c-4.971 0-9-4.03-9-9 0-4.971 4.029-9 9-9h18.28c4.972 0 9 4.029 9 9 0 4.97-4.028 9-9 9M365.937 60.581h-18.843c-4.97 0-9-4.029-9-9 0-4.97 4.03-9 9-9h18.843c4.97 0 9 4.03 9 9 0 4.971-4.03 9-9 9M421.806 60.581h-18.842c-4.97 0-9-4.029-9-9 0-4.97 4.03-9 9-9h18.842c4.97 0 9 4.03 9 9 0 4.971-4.03 9-9 9" mask="url(#jcxyq5crpd)"/>
        </g>
    </g>
</svg>
