<svg xmlns="http://www.w3.org/2000/svg" width="54" height="54" viewBox="0 0 54 54">
    <g fill="none" fill-rule="evenodd">
        <g fill="#F3F3F5">
            <g>
                <g>
                    <g>
                        <g>
                            <g>
                                <g>
                                    <path d="M17.675 30.94c-2.271-.346-4.396-1.291-6.098-2.782-.08-.07-.157-.145-.236-.218-.157-.147-.31-.299-.459-.455-.149-.155-.29-.316-.429-.479-.137-.16-.274-.322-.402-.492C8.469 24.46 7.602 21.95 7.602 19.3c0-2.729.912-5.312 2.585-7.398.032-.041.066-.08.1-.122.227-.276.466-.547.72-.805.523-.527 1.089-.99 1.686-1.401.173-.117.346-.234.525-.34.071-.044.143-.088.215-.13 1.298-.739 2.737-1.233 4.242-1.461 1.004-.153 1.889-.691 2.493-1.517.603-.827.853-1.84.702-2.857-.151-1.016-.685-1.91-1.502-2.52-.765-.571-1.692-.824-2.631-.728V.014c-.028.003-.055.01-.083.014-.037.005-.074.006-.11.011-.338.052-.671.112-1.002.18-3.735.73-7.17 2.545-9.912 5.318-7.495 7.576-7.506 19.895-.037 27.487l.04.041.007.006.005.006c3.032 3.057 6.902 4.962 11.092 5.508v-.024c.939.095 1.866-.157 2.63-.728.818-.61 1.352-1.505 1.503-2.52.15-1.016-.099-2.03-.702-2.857-.604-.826-1.49-1.365-2.493-1.517M30.455 12.076c3.13 0 5.676-2.496 5.676-5.565 0-3.157-2.547-5.726-5.676-5.726-3.042 0-5.517 2.57-5.517 5.726 0 3.069 2.475 5.565 5.517 5.565M35.08 27.229c-.498-1.807-1.884-3.96-5.652-3.96-2.908 0-5.275 2.463-5.275 5.49 0 2.833 2.059 5.18 4.736 5.46v6.723l.825-.538c4.298-2.804 6.414-9.385 5.367-13.175" transform="translate(-602 -2280) translate(561 334) translate(0 1919) translate(26 12) translate(15 15) translate(6.97 7.265)"/>
                                </g>
                            </g>
                        </g>
                    </g>
                </g>
            </g>
        </g>
    </g>
</svg>
