<svg xmlns="http://www.w3.org/2000/svg" xmlns:xlink="http://www.w3.org/1999/xlink" width="550" height="550" viewBox="0 0 550 550">
    <defs>
        <path id="b7dpkiw6pa" d="M0.044 0.612L121.496 0.612 121.496 145.06 0.044 145.06z"/>
    </defs>
    <g fill="none" fill-rule="evenodd">
        <g>
            <g>
                <g transform="translate(32 16) translate(364 223.434)">
                    <mask id="8dcleqe4ib" fill="#fff">
                        <use xlink:href="#b7dpkiw6pa"/>
                    </mask>
                    <path fill="#2E036A" d="M49.273 145.06H.044v-17h49.229c30.45 0 55.223-24.773 55.223-55.224 0-30.451-24.773-55.224-55.223-55.224H7.83v-17h41.442c39.824 0 72.223 32.399 72.223 72.224s-32.4 72.224-72.223 72.224" mask="url(#8dcleqe4ib)"/>
                </g>
                <path fill="#2E036A" d="M409.791 329.86h-37.477v-17h37.477c9.479 0 17.189-7.711 17.189-17.19 0-9.48-7.71-17.191-17.189-17.191H372.53v-17h37.261c18.853 0 34.189 15.338 34.189 34.19 0 18.853-15.336 34.19-34.189 34.19M214.955 170.916c-.177 0-.354-.006-.534-.019-4.132-.29-7.246-3.876-6.955-8.008.582-8.27-.178-15.548-2.14-20.492-2.97-7.485-12.748-14.517-15.939-16.39-.074-.043-.147-.087-.218-.133-.882-.558-21.546-13.926-18.399-35.959 2.82-19.736 19.167-24.495 27.791-24.257 6.043-.22 17.79 2.986 21.998 16.802 1.882 6.184 1.192 12.544-1.997 18.394-1.98 3.637-6.536 4.978-10.174 2.996-3.637-1.982-4.978-6.538-2.996-10.175 1.27-2.33 1.53-4.505.817-6.845-1.683-5.525-5.457-6.175-7.134-6.175h-.03c-.33.034-.397.02-.762.002.05.002-3.09-.046-6.206 1.466-3.644 1.77-5.757 5.012-6.457 9.913-1.7 11.901 10.49 20.432 11.536 21.14 2.39 1.427 16.881 10.502 22.113 23.69 3.555 8.962 3.681 19.67 3.16 27.076-.279 3.953-3.572 6.974-7.474 6.974M262.554 175.197c-3.2 0-6.161-2.062-7.16-5.277-3.653-11.76-7.527-29.037-5.23-44.576 3.399-22.975 24.379-43.766 26.44-45.76 1.15-1.222 21.315-23.162 12.306-46.2-9.032-23.1-30.224-18.136-32.608-17.495-.293.079-.464.125-.764.168.01 0-3.487.7-6.928 3.34-4.363 3.346-6.792 8.4-7.222 15.022-.37 5.715 1.413 10.699 5.452 15.236.986 1.024 6.015 5.59 13.856 1.398 3.657-1.953 8.198-.572 10.15 3.08 1.952 3.654.572 8.198-3.08 10.15-15.003 8.016-27.541.502-32.074-4.593-6.69-7.477-9.901-16.556-9.273-26.242.93-14.344 8.037-22.344 13.835-26.53 5.402-3.9 10.667-5.223 12.34-5.567 12.669-3.427 39.029-2.22 50.287 26.57 5.352 13.688 4.296 28.854-3.054 43.859-5.362 10.948-12.267 18.058-12.558 18.355l-.182.18c-.187.179-19.346 18.713-22.084 37.224-1.884 12.743 1.525 27.66 4.715 37.93 1.23 3.957-.981 8.159-4.936 9.388-.742.23-1.492.34-2.228.34M17.235 458.708c2.36 23.4 22.173 41.726 46.185 41.726h303.481c24.013 0 43.825-18.326 46.186-41.726H17.235zm349.666 58.726H63.421c-34.97 0-63.42-28.45-63.42-63.42v-3.806c0-4.694 3.804-8.5 8.5-8.5h413.321c4.694 0 8.5 3.806 8.5 8.5v3.806c0 34.97-28.45 63.42-63.42 63.42z" transform="translate(32 16)"/>
                <path fill="#2E036A" d="M66.155 211.595c-5.585 0-10.128 4.543-10.128 10.128v92.78c0 57.616 48.768 127.205 109.328 127.205h89.347c49.52 0 109.328-56.741 109.328-127.205v-75c0-.955-.056-1.946-.165-2.945-.034-.307-.05-.617-.05-.926v-13.91c0-5.584-4.544-10.127-10.129-10.127H66.156zm188.547 247.113h-89.347c-32.945 0-64.873-16.877-89.9-47.523-22.81-27.93-36.428-64.073-36.428-96.682v-92.78c0-14.96 12.17-27.128 27.128-27.128h287.531c14.958 0 27.128 12.169 27.128 27.128v13.469c.144 1.449.216 2.898.216 4.312v74.999c0 32.609-13.618 68.752-36.428 96.682-25.028 30.646-56.955 47.523-89.9 47.523z" transform="translate(32 16)"/>
                <path fill="#D19FE9" d="M341.227 227.734H78.885c-3.68 0-6.663 2.983-6.663 6.664V308.902c0 .686.105 1.348.297 1.971 3.239 50.511 34.57 94.076 79.656 111.435 5.613 2.16 11.548 3.26 17.528 3.26h80.7c5.98 0 11.918-1.1 17.53-3.26 45.099-17.366 76.436-60.95 79.662-111.443.192-.62.295-1.28.295-1.964v-74.503c0-3.68-2.983-6.664-6.663-6.664" transform="translate(32 16)"/>
            </g>
        </g>
    </g>
</svg>
