<svg xmlns="http://www.w3.org/2000/svg" xmlns:xlink="http://www.w3.org/1999/xlink" width="551" height="550" viewBox="0 0 551 550">
    <defs>
        <path id="3pppk4hima" d="M0 474.264L454.611 474.264 454.611 0 0 0z"/>
    </defs>
    <g fill="none" fill-rule="evenodd">
        <g>
            <g transform="translate(1) translate(46.5 42)">
                <path fill="#2E036A" d="M171.94 117.715c-11.98 0-21.725 9.746-21.725 21.725 0 11.98 9.746 21.725 21.725 21.725 11.979 0 21.725-9.746 21.725-21.725 0-11.979-9.746-21.725-21.725-21.725m0 60.45c-21.353 0-38.725-17.372-38.725-38.725s17.372-38.725 38.725-38.725 38.725 17.372 38.725 38.725-17.372 38.725-38.725 38.725M171.94 214.115c-11.98 0-21.725 9.746-21.725 21.725 0 11.98 9.746 21.724 21.725 21.724 11.979 0 21.725-9.745 21.725-21.724 0-11.979-9.746-21.725-21.725-21.725m0 60.45c-21.353 0-38.725-17.372-38.725-38.725s17.372-38.725 38.725-38.725 38.725 17.372 38.725 38.725-17.372 38.724-38.725 38.724M171.94 310.515c-11.98 0-21.725 9.746-21.725 21.725 0 11.979 9.746 21.725 21.725 21.725 11.979 0 21.725-9.746 21.725-21.725 0-11.98-9.746-21.725-21.725-21.725m0 60.45c-21.353 0-38.725-17.372-38.725-38.725s17.372-38.725 38.725-38.725 38.725 17.372 38.725 38.725-17.372 38.725-38.725 38.725"/>
                <mask id="5sixcxwtcb" fill="#fff">
                    <use xlink:href="#3pppk4hima"/>
                </mask>
                <path fill="#2E036A" d="M202.165 147.941L247.147 147.941 247.147 130.941 202.165 130.941zM202.165 244.34L247.147 244.34 247.147 227.34 202.165 227.34zM202.165 340.74L247.147 340.74 247.147 323.74 202.165 323.74zM299.612 130.224h-16.186v-17h12.665l88.01-88.01c1.595-1.594 3.757-2.49 6.01-2.49h19.269v17h-15.747l-88.01 88.01c-1.595 1.594-3.757 2.49-6.011 2.49M415.147 445.45H398.96c-2.253 0-4.416-.897-6.01-2.49l-88.01-88.01h-21.514v-17h25.034c2.254 0 4.416.895 6.01 2.49l88.01 88.01h12.667v17zM319.725 166.191h-36.299v-17h32.778l54.869-54.869c1.594-1.594 3.756-2.489 6.01-2.489h35.83v17h-32.309l-54.868 54.868c-1.595 1.594-3.757 2.49-6.011 2.49M349.643 204.389h-63.427v-17h59.906l26.189-26.19c1.595-1.594 3.757-2.49 6.01-2.49h36.826v17h-33.305l-26.188 26.19c-1.595 1.594-3.757 2.49-6.011 2.49M415.147 309.464h-36.825c-2.254 0-4.416-.896-6.011-2.49l-26.188-26.189h-59.907v-17h63.427c2.254 0 4.416.895 6.01 2.49l26.189 26.189h33.305v17zM412.913 376.341h-24.659c-2.254 0-4.416-.896-6.01-2.49l-54.869-54.869h-47.274v-17h50.795c2.253 0 4.416.896 6.01 2.49l54.868 54.87h21.14v17zM280.1 242.587L412.913 242.587 412.913 225.587 280.1 225.587z" mask="url(#5sixcxwtcb)"/>
                <path fill="#2E036A" d="M429.07 24.798c-4.71 0-8.541 3.832-8.541 8.541 0 4.709 3.83 8.541 8.54 8.541 4.71 0 8.542-3.832 8.542-8.541 0-4.709-3.831-8.541-8.541-8.541m0 34.082c-14.083 0-25.541-11.458-25.541-25.541s11.458-25.541 25.54-25.541c14.084 0 25.542 11.458 25.542 25.541S443.153 58.88 429.07 58.88M429.07 92.359c-4.71 0-8.541 3.831-8.541 8.541 0 4.709 3.83 8.541 8.54 8.541 4.71 0 8.542-3.832 8.542-8.541 0-4.71-3.831-8.541-8.541-8.541m0 34.082c-14.083 0-25.541-11.458-25.541-25.541s11.458-25.541 25.54-25.541c14.084 0 25.542 11.458 25.542 25.541s-11.458 25.541-25.541 25.541M429.07 159.92c-4.71 0-8.541 3.832-8.541 8.54 0 4.71 3.83 8.541 8.54 8.541 4.71 0 8.542-3.832 8.542-8.54 0-4.71-3.831-8.542-8.541-8.542m0 34.082c-14.083 0-25.541-11.458-25.541-25.54 0-14.084 11.458-25.542 25.54-25.542 14.084 0 25.542 11.458 25.542 25.541s-11.458 25.541-25.541 25.541M429.07 227.48c-4.71 0-8.541 3.832-8.541 8.542 0 4.709 3.83 8.54 8.54 8.54 4.71 0 8.542-3.831 8.542-8.54 0-4.71-3.831-8.541-8.541-8.541m0 34.082c-14.083 0-25.541-11.458-25.541-25.541s11.458-25.541 25.54-25.541c14.084 0 25.542 11.458 25.542 25.54 0 14.084-11.458 25.542-25.541 25.542M429.07 295.041c-4.71 0-8.541 3.832-8.541 8.541 0 4.71 3.83 8.541 8.54 8.541 4.71 0 8.542-3.832 8.542-8.54 0-4.71-3.831-8.542-8.541-8.542m0 34.082c-14.083 0-25.541-11.458-25.541-25.54 0-14.084 11.458-25.542 25.54-25.542 14.084 0 25.542 11.458 25.542 25.541s-11.458 25.541-25.541 25.541M429.07 362.602c-4.71 0-8.541 3.831-8.541 8.541 0 4.71 3.83 8.541 8.54 8.541 4.71 0 8.542-3.832 8.542-8.54 0-4.71-3.831-8.542-8.541-8.542m0 34.082c-14.083 0-25.541-11.458-25.541-25.54 0-14.084 11.458-25.542 25.54-25.542 14.084 0 25.542 11.458 25.542 25.541s-11.458 25.541-25.541 25.541M429.07 430.163c-4.71 0-8.541 3.832-8.541 8.54 0 4.71 3.83 8.542 8.54 8.542 4.71 0 8.542-3.832 8.542-8.541 0-4.71-3.831-8.541-8.541-8.541m0 34.082c-14.083 0-25.541-11.457-25.541-25.541 0-14.083 11.458-25.541 25.54-25.541 14.084 0 25.542 11.458 25.542 25.54 0 14.085-11.458 25.542-25.541 25.542M138.799 128.358L66.229 70.237 76.856 56.968 149.426 115.09zM76.856 415.073L66.229 401.804 138.799 343.683 149.426 356.951zM71.213 147.085L141.715 147.085 141.715 130.085 71.213 130.085zM71.213 341.284L141.715 341.284 141.715 324.284 71.213 324.284zM71.213 244.227L141.715 244.227 141.715 227.227 71.213 227.227zM136.563 222.913L58.941 163.75 69.246 150.23 146.868 209.392z" mask="url(#5sixcxwtcb)"/>
                <path fill="#2E036A" d="M69.299 225.7L58.887 212.261 138.906 150.27 149.319 163.709zM136.563 319.183L58.941 260.02 69.246 246.5 146.868 305.662z" mask="url(#5sixcxwtcb)"/>
                <path fill="#2E036A" d="M69.299 321.97L58.887 308.531 138.906 246.54 149.319 259.979z" mask="url(#5sixcxwtcb)"/>
                <path fill="#7CD9C2" d="M83.496 41.749c0 23.057-18.69 41.748-41.747 41.748C18.69 83.497 0 64.806 0 41.749S18.69 0 41.748 0c23.056 0 41.747 18.69 41.747 41.748M83.496 139.44c0 23.058-18.69 41.749-41.747 41.749C18.69 181.189 0 162.498 0 139.44c0-23.056 18.69-41.748 41.748-41.748 23.056 0 41.747 18.692 41.747 41.748M83.496 237.132c0 23.057-18.69 41.748-41.747 41.748C18.69 278.88 0 260.19 0 237.132c0-23.057 18.69-41.748 41.748-41.748 23.056 0 41.747 18.691 41.747 41.748M83.496 334.824c0 23.057-18.69 41.748-41.747 41.748C18.69 376.572 0 357.882 0 334.824c0-23.057 18.69-41.748 41.748-41.748 23.056 0 41.747 18.691 41.747 41.748M83.496 432.516c0 23.057-18.69 41.748-41.747 41.748C18.69 474.264 0 455.574 0 432.516c0-23.057 18.69-41.748 41.748-41.748 23.056 0 41.747 18.691 41.747 41.748M264.051 377.361c-14.553 0-26.35-11.798-26.35-26.35V113.22c0-14.553 11.797-26.35 26.35-26.35 14.554 0 26.352 11.797 26.352 26.35v237.79c0 14.552-11.798 26.35-26.352 26.35" mask="url(#5sixcxwtcb)"/>
            </g>
        </g>
    </g>
</svg>
