<svg xmlns="http://www.w3.org/2000/svg" width="550" height="550" viewBox="0 0 550 550">
    <g fill="none" fill-rule="evenodd">
        <g>
            <g>
                <path fill="#2E036A" d="M440.642 456.593c-2.103 0-4.207-.774-5.852-2.336L244.102 273.21c-3.404-3.232-3.544-8.612-.312-12.016 3.233-3.405 8.613-3.544 12.017-.312L446.496 441.93c3.404 3.232 3.543 8.612.31 12.017-1.67 1.76-3.915 2.647-6.164 2.647" transform="translate(50 42)"/>
                <path fill="#FFF597" d="M217.533 261.443L190.509 196.954 251.377 230.377 303.237 183.905 291.114 252.94 350.636 288.551 300.712 295.371 281.6 297.981 277.559 316.587 266.699 366.595 236.559 303.453 167.524 309.767z" transform="translate(50 42)"/>
                <path fill="#2E036A" d="M75.335 57.611c0 6.804-5.516 12.319-12.319 12.319-6.804 0-12.321-5.515-12.321-12.319 0-6.805 5.517-12.32 12.321-12.32 6.803 0 12.319 5.515 12.319 12.32M113.901 57.611c0 6.804-5.516 12.319-12.319 12.319-6.805 0-12.32-5.515-12.32-12.319 0-6.805 5.515-12.32 12.32-12.32 6.803 0 12.32 5.515 12.32 12.32M152.468 57.611c0 6.804-5.516 12.319-12.32 12.319s-12.32-5.515-12.32-12.319c0-6.805 5.516-12.32 12.32-12.32s12.32 5.515 12.32 12.32" transform="translate(50 42)"/>
                <path fill="#2E036A" d="M288.501 466.776H43.053C19.314 466.776 0 447.463 0 423.723V70.634C0 31.686 31.687 0 70.634 0h324.765c.159 0 .315 0 .47.009 4.626.078 8.35 3.848 8.356 8.488.005 4.675-3.765 8.478-8.441 8.51-20.208.143-36.648 16.699-36.648 36.907v140.841c0 4.695-3.806 8.5-8.5 8.5-4.695 0-8.5-3.805-8.5-8.5V53.914c0-14.246 5.594-27.249 14.7-36.914H70.634C41.06 17 17 41.06 17 70.634v353.089c0 14.366 11.688 26.053 26.053 26.053h245.448c24.27 0 45.582-16.354 51.828-39.77 1.211-4.536 5.875-7.228 10.403-6.022 4.537 1.21 7.233 5.868 6.023 10.403-8.229 30.846-36.296 52.389-68.254 52.389" transform="translate(50 42)"/>
                <path fill="#2E036A" d="M423.52 112.106h-37.462c-4.695 0-8.5-3.806-8.5-8.5s3.805-8.5 8.5-8.5h37.463c5.303 0 9.615-4.313 9.615-9.616V54.555c0-20.545-16.699-37.38-37.238-37.555-20.182.174-36.59 16.717-36.59 36.905v49.701c0 4.694-3.805 8.5-8.5 8.5-4.693 0-8.5-3.806-8.5-8.5v-49.7c0-29.516 24.014-53.698 53.53-53.906h.12c29.874.208 54.178 24.681 54.178 54.555V85.49c0 14.676-11.94 26.616-26.615 26.616M171.01 182.927c-2.625 0-5.215-1.213-6.878-3.499l-28.354-38.959c-2.763-3.796-1.926-9.112 1.87-11.874 3.795-2.765 9.112-1.926 11.874 1.87l28.354 38.96c2.763 3.795 1.926 9.111-1.87 11.873-1.51 1.1-3.261 1.63-4.995 1.63M140.469 259.306c-.55 0-1.106-.054-1.666-.165l-47.58-9.46c-4.605-.915-7.595-5.39-6.68-9.994.916-4.604 5.384-7.596 9.994-6.68l47.58 9.46c4.605.915 7.595 5.391 6.68 9.994-.805 4.045-4.355 6.845-8.328 6.845M223.142 416.662c-.404 0-.813-.028-1.225-.088-4.646-.671-7.87-4.98-7.2-9.627l7.069-48.975c.67-4.647 4.985-7.87 9.627-7.2 4.646.67 7.869 4.98 7.199 9.627l-7.068 48.976c-.611 4.234-4.246 7.287-8.402 7.287M119.696 360.364c-2.795 0-5.53-1.377-7.156-3.902-2.54-3.95-1.399-9.207 2.55-11.747l39.021-25.104c3.947-2.538 9.207-1.398 11.747 2.55 2.54 3.948 1.4 9.207-2.55 11.747l-39.02 25.103c-1.424.916-3.017 1.353-4.592 1.353M253.9 168.775c-4.694 0-8.5-3.806-8.5-8.5v-41.057c0-4.694 3.806-8.5 8.5-8.5s8.5 3.806 8.5 8.5v41.057c0 4.694-3.806 8.5-8.5 8.5M335.424 249.988c-4.005 0-7.571-2.844-8.343-6.924-.871-4.612 2.16-9.058 6.775-9.93l42.856-8.1c4.614-.868 9.059 2.162 9.93 6.775.872 4.613-2.16 9.059-6.774 9.93l-42.856 8.1c-.533.1-1.065.149-1.588.149" transform="translate(50 42)"/>
            </g>
        </g>
    </g>
</svg>
