<svg xmlns="http://www.w3.org/2000/svg" width="550" height="550" viewBox="0 0 550 550">
    <g fill="none" fill-rule="evenodd">
        <g>
            <path fill="#FFF597" d="M325.682 191.21c-15.599-1.35-31.812-2.067-48.459-2.067-16.647 0-32.86.717-48.46 2.067-8.967 12.834-17.695 26.517-26.019 40.934-8.323 14.417-15.809 28.816-22.44 43 6.631 14.183 14.117 28.583 22.44 43 8.324 14.416 17.052 28.099 26.02 40.933 15.599 1.35 31.812 2.067 48.459 2.067 16.647 0 32.86-.717 48.459-2.067 8.967-12.834 17.695-26.517 26.019-40.934 8.324-14.416 15.809-28.816 22.44-42.999-6.631-14.184-14.116-28.583-22.44-43-8.324-14.417-17.052-28.1-26.02-40.934z"/>
            <path fill="#2E036A" fill-rule="nonzero" d="M146.086 47.088c-30.16 17.414-39.37 58.878-30.885 113.69 7.854 50.73 30.734 111.334 64.73 170.216 33.995 58.881 75.04 108.999 115.046 141.164 43.226 34.755 83.74 47.511 113.9 30.098 30.162-17.413 39.37-58.878 30.886-113.69-7.853-50.729-30.734-111.334-64.729-170.216-33.995-58.881-75.04-108.998-115.047-141.164-42.794-34.407-82.93-47.254-112.993-30.611l-.908.513zm8.75 15.156C200.343 35.97 292.143 109.78 359.88 227.1c67.735 117.321 85.755 233.727 40.249 260-45.507 26.274-137.307-47.535-205.042-164.856-67.736-117.321-85.756-233.727-40.25-260z"/>
            <path fill="#2E036A" fill-rule="nonzero" d="M277.482 11.88c-34.827 0-63.534 31.305-83.592 83.017-18.564 47.859-29.051 111.784-29.051 179.775 0 67.99 10.487 131.916 29.051 179.776 20.058 51.711 48.765 83.015 83.592 83.015s63.534-31.304 83.592-83.015c18.564-47.86 29.051-111.785 29.051-179.776 0-67.99-10.487-131.916-29.05-179.775-20.059-51.712-48.766-83.016-83.593-83.016zm0 17.5c52.546 0 95.143 109.822 95.143 245.292s-42.597 245.291-95.143 245.291-95.143-109.82-95.143-245.29c0-135.471 42.597-245.292 95.143-245.292z" transform="translate(277.482051, 274.672105) rotate(-90.000000) translate(-277.482051, -274.672105)"/>
            <path fill="#2E036A" fill-rule="nonzero" d="M294.977 77.186c-40.006 32.166-81.051 82.283-115.047 141.164-33.995 58.882-56.875 119.487-64.729 170.216-8.485 54.812.725 96.277 30.885 113.69 30.161 17.413 70.675 4.657 113.901-30.098 40.006-32.165 81.052-82.283 115.047-141.164 33.995-58.882 56.876-119.487 64.729-170.216 8.485-54.812-.724-96.276-30.885-113.69-30.161-17.413-70.675-4.657-113.901 30.098zm105.15-14.942c45.507 26.273 27.487 142.679-40.248 260-67.736 117.32-159.536 191.13-205.043 164.856-45.506-26.273-27.486-142.679 40.25-260C262.82 109.78 354.62 35.97 400.128 62.244z"/>
            <path fill="#2E036A" d="M318.637 274.997c0 22.643-18.403 41-41.103 41-22.7 0-41.102-18.357-41.102-41s18.402-41 41.102-41c22.7 0 41.103 18.357 41.103 41"/>
        </g>
    </g>
</svg>
