<?xml version="1.0" encoding="UTF-8"?>
<svg width="550px" height="550px" viewBox="0 0 550 550" version="1.1" xmlns="http://www.w3.org/2000/svg" xmlns:xlink="http://www.w3.org/1999/xlink">
    <title>컴퓨터 아키텍쳐</title>
    <g id="컴퓨터-아키텍쳐" stroke="none" stroke-width="1" fill="none" fill-rule="evenodd">
        <g stroke="#2E036A" stroke-width="15">
            <rect id="Rectangle" x="141.738724" y="139.691539" width="268.564211" height="268.564211" rx="38"></rect>
            <rect id="Rectangle-Copy-9" fill="#7CD9C2" x="193.786051" y="191.738866" width="164.469555" height="164.469555" rx="10"></rect>
        </g>
        <g id="Group" transform="translate(403.016308, 234.938148)" fill="#2E036A" fill-rule="nonzero">
            <path d="M60.4836916,0.0618517144 C75.1192375,0.0618517144 86.9836916,11.9263058 86.9836916,26.5618517 C86.9836916,41.1973976 75.1192375,53.0618517 60.4836916,53.0618517 C48.821316,53.0618517 38.9185127,45.5282274 35.3763511,35.0620483 L-0.0163083763,35.0618517 L-0.0163083763,19.0618517 L35.0602063,19.0609524 C38.2953598,8.07837626 48.4533459,0.0618517144 60.4836916,0.0618517144 Z M60.4836916,15.650087 C54.4572904,15.650087 49.5719269,20.5354505 49.5719269,26.5618517 C49.5719269,32.588253 54.4572904,37.4736164 60.4836916,37.4736164 C66.5100929,37.4736164 71.3954563,32.588253 71.3954563,26.5618517 C71.3954563,20.5354505 66.5100929,15.650087 60.4836916,15.650087 Z" id="Combined-Shape"></path>
        </g>
        <g id="Group-Copy" transform="translate(25.655101, 20.643668)" fill="#2E036A" fill-rule="nonzero">
            <path d="M461.844899,142.356332 C476.480445,142.356332 488.344899,154.220786 488.344899,168.856332 C488.344899,183.491878 476.480445,195.356332 461.844899,195.356332 C450.182641,195.356332 440.279919,187.822859 436.737665,177.356844 L391.344899,177.356332 L391.344899,161.356332 L436.421119,161.356432 C439.655951,150.373343 449.814189,142.356332 461.844899,142.356332 Z M461.844899,157.944567 C455.818498,157.944567 450.933135,162.829931 450.933135,168.856332 C450.933135,174.882733 455.818498,179.768097 461.844899,179.768097 C467.8713,179.768097 472.756664,174.882733 472.756664,168.856332 C472.756664,162.829931 467.8713,157.944567 461.844899,157.944567 Z" id="Combined-Shape"></path>
            <path d="M273.633539,408.34166 C288.269084,408.34166 300.133539,420.206114 300.133539,434.84166 C300.133539,449.477206 288.269084,461.34166 273.633539,461.34166 C261.603193,461.34166 251.445207,453.325135 248.210053,442.342559 L203.133539,442.34166 L203.133539,426.34166 L248.526198,426.341463 C252.06836,415.875284 261.971163,408.34166 273.633539,408.34166 Z M273.633539,423.929895 C267.607137,423.929895 262.721774,428.815259 262.721774,434.84166 C262.721774,440.868061 267.607137,445.753425 273.633539,445.753425 C279.65994,445.753425 284.545303,440.868061 284.545303,434.84166 C284.545303,428.815259 279.65994,423.929895 273.633539,423.929895 Z" id="Combined-Shape-Copy-2" transform="translate(251.231883, 434.454676) rotate(-270.000000) translate(-251.231883, -434.454676) "></path>
            <path d="M310.973009,43.7623234 C325.608555,43.7623234 337.473009,55.6267775 337.473009,70.2623234 C337.473009,84.8978692 325.608555,96.7623234 310.973009,96.7623234 C299.310751,96.7623234 289.40803,89.2288505 285.865776,78.7628355 L240.473009,78.7623234 L240.473009,62.7623234 L285.54923,62.7624237 C288.784061,51.7793343 298.942299,43.7623234 310.973009,43.7623234 Z M310.973009,59.3505587 C304.946608,59.3505587 300.061245,64.2359221 300.061245,70.2623234 C300.061245,76.2887246 304.946608,81.1740881 310.973009,81.1740881 C316.999411,81.1740881 321.884774,76.2887246 321.884774,70.2623234 C321.884774,64.2359221 316.999411,59.3505587 310.973009,59.3505587 Z" id="Combined-Shape-Copy-3" transform="translate(288.705959, 70.123383) rotate(-90.000000) translate(-288.705959, -70.123383) "></path>
            <path d="M94.5332522,142.356332 C109.168798,142.356332 121.033252,154.220786 121.033252,168.856332 C121.033252,183.491878 109.168798,195.356332 94.5332522,195.356332 C82.8709939,195.356332 72.9682723,187.822859 69.4260185,177.356844 L24.0332522,177.356332 L24.0332522,161.356332 L69.1094725,161.356432 C72.3443041,150.373343 82.5025415,142.356332 94.5332522,142.356332 Z M94.5332522,157.944567 C88.506851,157.944567 83.6214875,162.829931 83.6214875,168.856332 C83.6214875,174.882733 88.506851,179.768097 94.5332522,179.768097 C100.559653,179.768097 105.445017,174.882733 105.445017,168.856332 C105.445017,162.829931 100.559653,157.944567 94.5332522,157.944567 Z" id="Combined-Shape-Copy-5" transform="translate(72.189076, 169.013305) scale(-1, 1) translate(-72.189076, -169.013305) "></path>
            <path d="M431.701539,306.356332 C434.057736,306.356332 436.280871,307.434575 437.751847,309.277499 L437.931756,309.511825 L462.169234,342.339521 C465.30967,341.060847 468.745011,340.356332 472.344899,340.356332 C487.256587,340.356332 499.344899,352.444644 499.344899,367.356332 C499.344899,382.26802 487.256587,394.356332 472.344899,394.356332 C457.433211,394.356332 445.344899,382.26802 445.344899,367.356332 C445.344899,361.713663 447.075836,356.475276 450.035696,352.143184 L427.801085,322.025429 L378.344899,322.025779 L378.344899,306.356332 L431.701539,306.356332 Z M472.344899,355.933255 C466.036108,355.933255 460.921822,361.047541 460.921822,367.356332 C460.921822,373.665123 466.036108,378.779409 472.344899,378.779409 C478.65369,378.779409 483.767976,373.665123 483.767976,367.356332 C483.767976,361.047541 478.65369,355.933255 472.344899,355.933255 Z" id="Combined-Shape"></path>
            <path d="M53.820569,327.356332 C56.1767662,327.356332 58.3999009,328.434575 59.8708771,330.277499 L60.0507868,330.511825 L84.2862578,363.340338 C87.4272376,362.061147 90.8632744,361.356332 94.4639296,361.356332 C109.375618,361.356332 121.46393,373.444644 121.46393,388.356332 C121.46393,403.26802 109.375618,415.356332 94.4639296,415.356332 C79.5522414,415.356332 67.4639296,403.26802 67.4639296,388.356332 C67.4639296,382.713663 69.1948664,377.475276 72.1547262,373.143184 L49.9201156,343.025429 L0.463929625,343.025779 L0.463929625,327.356332 L53.820569,327.356332 Z M94.4639296,376.933255 C88.1551384,376.933255 83.0408527,382.047541 83.0408527,388.356332 C83.0408527,394.665123 88.1551384,399.779409 94.4639296,399.779409 C100.772721,399.779409 105.887007,394.665123 105.887007,388.356332 C105.887007,382.047541 100.772721,376.933255 94.4639296,376.933255 Z" id="Combined-Shape-Copy-8" transform="translate(60.904414, 371.106487) scale(-1, 1) translate(-60.904414, -371.106487) "></path>
            <path d="M345.486835,402.571036 C347.843032,402.571036 350.066167,403.649278 351.537143,405.492203 L351.717053,405.726528 L376.353307,439.09568 C379.521092,437.790786 382.991591,437.071036 386.630196,437.071036 C401.541884,437.071036 413.630196,449.159347 413.630196,464.071036 C413.630196,478.982724 401.541884,491.071036 386.630196,491.071036 C371.718508,491.071036 359.630196,478.982724 359.630196,464.071036 C359.630196,458.468563 361.336559,453.264633 364.257924,448.950607 L341.586382,418.240132 L292.130196,418.240483 L292.130196,402.571036 L345.486835,402.571036 Z M386.630196,452.647959 C380.321405,452.647959 375.207119,457.762244 375.207119,464.071036 C375.207119,470.379827 380.321405,475.494112 386.630196,475.494112 C392.938987,475.494112 398.053273,470.379827 398.053273,464.071036 C398.053273,457.762244 392.938987,452.647959 386.630196,452.647959 Z" id="Combined-Shape-Copy-10" transform="translate(352.369449, 447.095586) scale(-1, 1) rotate(-270.000000) translate(-352.369449, -447.095586) "></path>
            <path d="M140.420364,402.553665 C142.776561,402.553665 144.999696,403.631907 146.470672,405.474832 L146.650582,405.709157 L171.286836,439.078309 C174.454621,437.773415 177.92512,437.053665 181.563725,437.053665 C196.475413,437.053665 208.563725,449.141976 208.563725,464.053665 C208.563725,478.965353 196.475413,491.053665 181.563725,491.053665 C166.652037,491.053665 154.563725,478.965353 154.563725,464.053665 C154.563725,458.451192 156.270088,453.247262 159.191453,448.933236 L136.519911,418.222761 L87.0637249,418.223112 L87.0637249,402.553665 L140.420364,402.553665 Z M181.563725,452.630588 C175.254934,452.630588 170.140648,457.744873 170.140648,464.053665 C170.140648,470.362456 175.254934,475.476742 181.563725,475.476742 C187.872516,475.476742 192.986802,470.362456 192.986802,464.053665 C192.986802,457.744873 187.872516,452.630588 181.563725,452.630588 Z" id="Combined-Shape-Copy-11" transform="translate(147.302978, 447.095586) rotate(-270.000000) translate(-147.302978, -447.095586) "></path>
            <path d="M167.813257,16.4680505 C170.169454,16.4680505 172.392589,17.5462931 173.863565,19.3892174 L174.043475,19.623543 L198.67913,52.9929413 C201.847077,51.6878914 205.317783,50.9680505 208.956617,50.9680505 C223.868306,50.9680505 235.956617,63.0563622 235.956617,77.9680505 C235.956617,92.8797387 223.868306,104.96805 208.956617,104.96805 C194.044929,104.96805 181.956617,92.8797387 181.956617,77.9680505 C181.956617,72.3651457 183.663244,67.1608449 186.585022,62.8466234 L163.912803,32.1371469 L114.456617,32.1374975 L114.456617,16.4680505 L167.813257,16.4680505 Z M208.956617,66.5449735 C202.647826,66.5449735 197.533541,71.6592593 197.533541,77.9680505 C197.533541,84.2768416 202.647826,89.3911274 208.956617,89.3911274 C215.265409,89.3911274 220.379694,84.2768416 220.379694,77.9680505 C220.379694,71.6592593 215.265409,66.5449735 208.956617,66.5449735 Z" id="Combined-Shape-Copy-12" transform="translate(175.408535, 60.904414) scale(1, -1) rotate(-270.000000) translate(-175.408535, -60.904414) "></path>
            <path d="M53.820569,209.602721 C56.1767662,209.602721 58.3999009,210.680964 59.8708771,212.523888 L60.0507868,212.758214 L84.2862578,245.586727 C87.4272376,244.307536 90.8632744,243.602721 94.4639296,243.602721 C109.375618,243.602721 121.46393,255.691033 121.46393,270.602721 C121.46393,285.51441 109.375618,297.602721 94.4639296,297.602721 C79.5522414,297.602721 67.4639296,285.51441 67.4639296,270.602721 C67.4639296,264.960121 69.194824,259.721793 72.1546174,255.389732 L49.9201156,225.271818 L0.463929625,225.272168 L0.463929625,209.602721 L53.820569,209.602721 Z M94.4639296,259.179644 C88.1551384,259.179644 83.0408527,264.29393 83.0408527,270.602721 C83.0408527,276.911512 88.1551384,282.025798 94.4639296,282.025798 C100.772721,282.025798 105.887007,276.911512 105.887007,270.602721 C105.887007,264.29393 100.772721,259.179644 94.4639296,259.179644 Z" id="Combined-Shape-Copy-9" transform="translate(60.904414, 253.479527) scale(-1, -1) translate(-60.904414, -253.479527) "></path>
        </g>
    </g>
</svg>